<svg width="45" height="45" viewBox="0 0 45 45" fill="none" xmlns="http://www.w3.org/2000/svg">
<path d="M42.9876 0.000814814C42.9148 0.0031179 42.8421 0.00949396 42.7699 0.019913H31.2915C31.0324 0.016248 30.7751 0.064125 30.5346 0.160761C30.2941 0.257398 30.0752 0.400866 29.8906 0.582829C29.7061 0.764792 29.5595 0.98162 29.4595 1.22071C29.3595 1.45981 29.3079 1.7164 29.3079 1.97557C29.3079 2.23474 29.3595 2.49133 29.4595 2.73042C29.5595 2.96952 29.7061 3.18635 29.8906 3.36831C30.0752 3.55027 30.2941 3.69374 30.5346 3.79038C30.7751 3.88701 31.0324 3.93489 31.2915 3.93123H38.3046L18.1744 24.0607C17.9867 24.2409 17.8369 24.4568 17.7337 24.6956C17.6304 24.9345 17.5759 25.1915 17.5732 25.4517C17.5706 25.7119 17.6199 25.97 17.7182 26.2109C17.8166 26.4518 17.962 26.6706 18.146 26.8546C18.33 27.0386 18.5489 27.184 18.7898 27.2823C19.0307 27.3807 19.2888 27.43 19.549 27.4273C19.8091 27.4247 20.0662 27.3702 20.305 27.2669C20.5439 27.1637 20.7597 27.0138 20.94 26.8262L41.0701 6.69665V13.7095C41.0664 13.9687 41.1143 14.2259 41.211 14.4664C41.3076 14.7069 41.4511 14.9258 41.633 15.1103C41.815 15.2949 42.0318 15.4414 42.271 15.5415C42.5101 15.6415 42.7666 15.693 43.0258 15.693C43.285 15.693 43.5416 15.6415 43.7807 15.5415C44.0198 15.4414 44.2366 15.2949 44.4186 15.1103C44.6006 14.9258 44.7441 14.7069 44.8407 14.4664C44.9373 14.2259 44.9852 13.9687 44.9816 13.7095V2.22385C45.0205 1.94228 44.9976 1.65561 44.9145 1.38379C44.8313 1.11198 44.6899 0.861549 44.5001 0.649946C44.3103 0.438342 44.0767 0.270649 43.8155 0.158543C43.5543 0.0464365 43.2718 -0.00738881 42.9876 0.000814814ZM3.91144 7.84254C1.77371 7.84254 0 9.61619 0 11.7538V41.0887C0 43.2263 1.77371 45 3.91144 45H33.2472C35.385 45 37.1587 43.2263 37.1587 41.0887V21.5321V16.4902L33.2472 20.4015V25.4434V41.0887H3.91144V11.7538H19.5572H23.4686H24.5993L28.5107 7.84254H23.4686H19.5572H3.91144Z" fill="black"/>
</svg>
